<svg width="345" height="302" viewBox="0 0 345 302" fill="none" xmlns="http://www.w3.org/2000/svg">
<path d="M270.75 8.5238C270.75 13.1895 271.491 23.7346 273.358 28.4837C274.784 32.1104 281.126 34.945 288.705 38.0993C298.492 42.1726 313.204 39.265 322.043 34.0016C330.263 29.1067 333.696 27.6977 341.199 28.074C348.298 28.43 333.631 48.9261 330.963 54.3188C330.678 55.297 330.561 56.2231 330.5 57.4196C330.44 58.616 330.44 60.0548 330.44 61.5371" stroke="black" stroke-width="2" stroke-linecap="round"/>
<path d="M330.924 59.1198C330.924 59.3948 330.924 70.1546 331.015 86.7043C331.078 98.1458 336.849 108.469 336.997 120.847C337.041 124.587 333.97 132.983 329.221 145.918C325.621 155.724 322.293 160.551 320.152 163.482C312.275 174.269 301.782 180.187 293.655 182.937C288.447 184.7 280.077 184.218 268.919 185.037C256.095 185.978 245.907 184.689 239.737 182.983C225.753 176.047 211.532 166.077 206.29 162.659C204.991 161.977 203.463 161.257 201.888 160.514" stroke="black" stroke-width="2" stroke-linecap="round"/>
<path d="M254.169 187.497C254.169 187.552 253.689 188.599 250.807 194.001C244.297 206.208 238.32 217.43 235.927 223.102C233.567 228.693 230.655 232.862 229.786 237.076C228.25 244.525 242.479 258.039 245.72 263.325C247.414 266.088 233.718 269.833 221.996 273.24C216.212 274.921 211.995 273.304 209.826 271.437C205.631 267.827 202.255 262.034 198.85 255.502C190.555 239.591 189.074 233.106 190.591 226.912C198.884 211.852 200.839 206.565 201.738 203.055C202.079 201.575 202.187 200.704 202.298 198.53" stroke="black" stroke-width="2" stroke-linecap="round"/>
<path d="M189.277 227.59C183.398 227.715 170.7 227.362 169.314 226.388C167.96 225.437 166.965 223.203 165.738 220.463C165.213 214.405 166.952 208.027 169.439 201.045C170.414 198.411 170.806 197.625 172.194 196.37" stroke="black" stroke-width="2" stroke-linecap="round"/>
<path d="M167.58 223.282C167.549 224.988 166.396 233.314 163.26 243.326C161.079 250.289 157.7 255.079 157.123 257.474C155.217 265.377 170.527 273.802 171.068 275.801C171.622 277.851 163.775 280.258 152.789 282.816C141.746 285.387 134.67 283.459 132.823 282.316C127.104 278.774 122.264 264.263 117.521 255.747C115.828 251.521 115.737 242.965 119.881 225.55C123.449 214.492 130.331 193.855 137.551 171.706" stroke="black" stroke-width="2" stroke-linecap="round"/>
<path d="M115.448 254.27C109.785 254.275 97.4591 255.112 93.136 259.295C89.8362 263.589 87.1154 267.569 84.5293 269.567C82.6955 270.799 79.8028 272.474 74.4971 274.46" stroke="black" stroke-width="2" stroke-linecap="round"/>
<path d="M74.4973 274.46C72.8427 274.331 68.2516 273.541 60.4498 269.255C51.7292 264.464 44.4728 254.621 36.7837 244.611C21.5648 224.8 20.252 221.672 18.8025 221.268C18.2382 221.111 17.9749 222.115 18.1389 223.083C18.518 225.318 27.4819 234.381 43.4958 249.352C51.2854 256.635 59.35 262.218 65.1866 267.302C80.4421 280.589 81.5969 287.065 82.466 291.584C82.719 292.899 82.5337 294.647 82.0995 295.756C79.5206 302.345 62.5179 301.563 55.0685 299.492C42.665 296.042 34.416 281.414 28.577 272.685C24.2003 266.141 17.4087 255.008 13.235 247.809C7.44352 237.819 4.98384 228.366 2.48644 214.954C-0.353232 199.703 1.34809 189.545 3.65555 182.109C5.7153 176.159 9.57957 165.793 12.6784 158.435C15.7772 151.077 17.9934 147.042 21.1163 142.109" stroke="black" stroke-width="2" stroke-linecap="round"/>
<path d="M21.1162 142.109C21.1425 139.547 22.5527 129.104 27.0164 119.278C28.1786 116.72 30.0724 114.381 35.4053 108.062C40.7381 101.743 49.7194 91.654 59.5091 81.9138C69.2988 72.1735 79.6247 63.0881 86.5366 57.4518C93.4485 51.8155 96.6333 49.9036 103.679 47.303C110.724 44.7024 121.533 41.471 132.218 39.268C142.903 37.065 153.136 35.9882 167.861 35.3112C182.586 34.6341 201.493 34.3894 213.965 33.8155C226.438 33.2415 231.904 32.3457 237.823 30.9081" stroke="black" stroke-width="2" stroke-linecap="round"/>
<path d="M263.783 83.8172C263.783 84.8141 263.163 88.6934 261.813 91.9262C260.201 95.787 265.76 100.943 269.268 103.218C270.002 103.694 271.073 102.971 271.757 102.35C273.148 101.088 273.54 98.7697 273.92 96.5199C274.297 94.2923 273.2 92.1583 271.23 89.9626C268.423 86.8354 265.007 84.9574 262.024 83.9349C257.899 82.5216 254.367 83.7144 253.083 84.6208C251.572 85.6876 251.902 88.7708 252.138 91.5124C252.846 93.7759 254.01 95.3238 255.611 96.3245C256.534 96.8085 257.683 97.2443 259.574 97.8832" stroke="black" stroke-width="2" stroke-linecap="round"/>
<path d="M317.115 89.5435C317.056 89.5435 316.996 89.5435 316.552 89.5349C316.109 89.5263 315.283 89.5091 314.851 91.2226C313.586 96.243 314.956 100.697 316.176 102.124C317.369 103.52 319.266 103.939 321.058 103.832C322.812 103.727 323.931 102.008 324.549 100.474C324.722 99.6432 324.608 98.7069 323.496 97.7529C322.385 96.799 320.28 95.8557 317.835 94.6785" stroke="black" stroke-width="2" stroke-linecap="round"/>
<path d="M287.166 93.3427C287.166 99.7223 287.983 115.225 289.474 119.049C289.786 119.849 290.267 120.506 289.954 121.058C288.593 122.005 286.034 122.5 283.071 122.79C281.585 122.992 280.138 123.306 277.791 123.383" stroke="black" stroke-width="2" stroke-linecap="round"/>
<path d="M258.743 136.034C258.806 136.097 260.038 137.31 263.925 140.282C270.747 144.439 277.262 147.757 282.348 149.418C285.181 150.199 288.526 150.852 292.963 151.525" stroke="black" stroke-width="2" stroke-linecap="round"/>
<path d="M225.583 103.68C225.583 103.615 226.274 104.556 228.658 107.41C230.351 109.291 233.027 112.049 234.745 113.723C236.463 115.397 237.144 115.904 237.845 116.425" stroke="black" stroke-width="2" stroke-linecap="round"/>
<path d="M206.771 136.729C206.912 136.729 207.053 136.729 213.068 136.845C219.083 136.961 230.969 137.192 243.216 137.431" stroke="black" stroke-width="2" stroke-linecap="round"/>
<path d="M238.003 29.9427C237.997 28.1858 238.529 22.5195 244.445 12.1164C248.592 4.82451 255.907 1.8215 260.048 1.08416C263.403 0.486805 266.474 3.20406 268.066 5.25913C268.358 5.85776 268.58 6.5329 269.13 7.58418C269.68 8.63546 270.551 10.0424 271.332 11.2921" stroke="black" stroke-width="2" stroke-linecap="round"/>
</svg>
