<svg width="347" height="302" viewBox="0 0 347 302" fill="none" xmlns="http://www.w3.org/2000/svg">
<circle cx="344.5" cy="32.5" r="2.5" fill="black"/>
<circle cx="332.5" cy="57.5" r="2.5" fill="black"/>
<circle cx="332.5" cy="88.5" r="2.5" fill="black"/>
<circle cx="341.5" cy="123.5" r="2.5" fill="black"/>
<circle cx="326.5" cy="161.5" r="2.5" fill="black"/>
<circle cx="297.5" cy="183.5" r="2.5" fill="black"/>
<circle cx="262.5" cy="185.5" r="2.5" fill="black"/>
<circle cx="242.5" cy="183.5" r="2.5" fill="black"/>
<circle cx="206.5" cy="161.5" r="2.5" fill="black"/>
<circle cx="255.5" cy="188.5" r="2.5" fill="black"/>
<circle cx="237.5" cy="223.5" r="2.5" fill="black"/>
<circle cx="232.5" cy="241.5" r="2.5" fill="black"/>
<circle cx="250.5" cy="265.5" r="2.5" fill="black"/>
<circle cx="221.5" cy="277.5" r="2.5" fill="black"/>
<circle cx="193.5" cy="234.5" r="2.5" fill="black"/>
<circle cx="204.5" cy="199.5" r="2.5" fill="black"/>
<circle cx="191.5" cy="229.5" r="2.5" fill="black"/>
<circle cx="170.5" cy="227.5" r="2.5" fill="black"/>
<circle cx="175.5" cy="199.5" r="2.5" fill="black"/>
<circle cx="159.5" cy="260.5" r="2.5" fill="black"/>
<circle cx="176.5" cy="277.5" r="2.5" fill="black"/>
<circle cx="151.5" cy="287.5" r="2.5" fill="black"/>
<circle cx="133.5" cy="285.5" r="2.5" fill="black"/>
<circle cx="119.5" cy="252.5" r="2.5" fill="black"/>
<circle cx="138.5" cy="173.5" r="2.5" fill="black"/>
<circle cx="99.5" cy="260.5" r="2.5" fill="black"/>
<circle cx="114.5" cy="257.5" r="2.5" fill="black"/>
<circle cx="78.5" cy="277.5" r="2.5" fill="black"/>
<circle cx="22.5" cy="224.5" r="2.5" fill="black"/>
<circle cx="83.5" cy="288.5" r="2.5" fill="black"/>
<circle cx="82.5" cy="299.5" r="2.5" fill="black"/>
<circle cx="46.5" cy="299.5" r="2.5" fill="black"/>
<circle cx="10.5" cy="239.5" r="2.5" fill="black"/>
<circle cx="2.5" cy="191.5" r="2.5" fill="black"/>
<circle cx="25.5" cy="147.5" r="2.5" fill="black"/>
<circle cx="30.5" cy="120.5" r="2.5" fill="black"/>
<circle cx="99.5" cy="54.5" r="2.5" fill="black"/>
<circle cx="170.5" cy="38.5" r="2.5" fill="black"/>
<circle cx="240.5" cy="34.5" r="2.5" fill="black"/>
<circle cx="252.5" cy="7.5" r="2.5" fill="black"/>
<circle cx="263.5" cy="2.5" r="2.5" fill="black"/>
<circle cx="273.5" cy="9.5" r="2.5" fill="black"/>
<circle cx="273.5" cy="31.5" r="2.5" fill="black"/>
<circle cx="306.5" cy="40.5" r="2.5" fill="black"/>
<circle cx="330.5" cy="31.5" r="2.5" fill="black"/>
<path d="M271.163 94.6704C271.138 94.5975 270.742 94.1427 269.988 93.4232C269.366 92.8292 266.447 92.4791 262.629 92.2204C261.285 92.1293 261.132 92.6017 261.067 93.2232C260.911 94.7167 261.448 96.1815 262.251 97.1427C264.737 100.118 270.465 100.434 270.933 99.8679C271.477 99.21 271.093 98.0839 270.745 97.1072C270.333 95.9515 269.439 95.2823 268.833 94.8175C268.102 94.2565 267.248 94.0814 266.672 94.2382C266.44 94.4118 266.328 94.7762 266.274 95.1419C266.22 95.5075 266.228 95.8634 266.598 96.3822" stroke="black" stroke-width="10" stroke-linecap="round"/>
<path d="M319.293 98.0679C319.268 98.0679 319.034 98.3443 318.699 99.0683C318.252 100.034 319.166 101.51 320.332 102.746C321.248 103.718 322.574 103.59 323.48 103.43C324.302 103.285 324.67 102.28 324.938 101.355C325.231 100.342 325.166 99.1423 325.023 97.9862C324.955 97.4294 324.633 96.9811 324.197 96.6318C322.466 95.2434 319.694 95.6842 317.698 95.8364C317.006 95.8892 316.388 96.3583 315.858 96.9028C315.588 97.1812 315.565 97.6628 315.663 98.1029C315.869 99.0342 316.663 99.6378 317.364 100.029C318.892 100.88 322.333 100.741 324.315 100.105C324.497 99.814 324.558 99.4152 324.48 98.931C324.402 98.4468 324.182 97.8892 323.956 97.3148" stroke="black" stroke-width="10" stroke-linecap="round"/>
<path d="M290.626 95.6304C290.626 95.7051 290.647 101.255 290.823 110.411C290.976 118.347 292.902 120.487 292.837 121.176C291.408 122.532 289.452 123.299 284.907 123.83C283.324 123.894 281.331 123.895 279.278 123.897" stroke="black" stroke-width="5" stroke-linecap="round"/>
<path d="M260.621 135.5C261.058 136.034 263.293 138.463 271.202 143.248C274.713 144.915 279.848 147.001 284.224 148.681C288.6 150.36 292.061 151.572 296.101 153.15" stroke="black" stroke-width="5" stroke-linecap="round"/>
<path d="M225.732 104.257C225.702 104.197 225.978 104.35 228.314 106.552C230.359 108.571 234.146 112.42 236.352 114.529C238.557 116.639 239.066 116.891 240.014 117.498" stroke="black" stroke-width="10" stroke-linecap="round"/>
<path d="M207.769 138.989H246.492" stroke="black" stroke-width="10" stroke-linecap="round"/>
</svg>
